<svg xmlns="http://www.w3.org/2000/svg" xmlns:xlink="http://www.w3.org/1999/xlink" width="400" zoomAndPan="magnify" viewBox="0 0 300 149.999998" height="200" preserveAspectRatio="xMidYMid meet" version="1.0"><defs><g/><clipPath id="c13cf56c3b"><path d="M 14.535156 55 L 150 55 L 150 148.5 L 14.535156 148.5 Z M 14.535156 55 " clip-rule="nonzero"/></clipPath><clipPath id="11834f088e"><path d="M 149 55 L 285 55 L 285 148.5 L 149 148.5 Z M 149 55 " clip-rule="nonzero"/></clipPath></defs><path fill="#38b6ff" d="M 280.507812 45.699219 C 281.902344 40.722656 284.964844 30.789062 284.964844 30.789062 C 168.953125 21.011719 149.765625 73.660156 149.765625 73.660156 C 176.683594 39.128906 260.261719 43.972656 280.507812 45.699219 " fill-opacity="1" fill-rule="nonzero"/><path fill="#230b41" d="M 19.464844 43.691406 C 18.148438 38.691406 15.242188 28.714844 15.242188 28.714844 C 131.390625 20.722656 149.765625 73.660156 149.765625 73.660156 C 123.378906 38.714844 39.738281 42.277344 19.464844 43.691406 " fill-opacity="1" fill-rule="nonzero"/><g clip-path="url(#c13cf56c3b)"><path fill="#230b41" d="M 14.5625 57.515625 L 41.5625 123.011719 C 84.925781 128.269531 124.269531 116.035156 149.765625 148.742188 L 149.765625 85.050781 C 119.046875 45.648438 14.5625 57.515625 14.5625 57.515625 " fill-opacity="1" fill-rule="nonzero"/></g><g clip-path="url(#11834f088e)"><path fill="#38b6ff" d="M 284.964844 57.515625 L 257.96875 123.011719 C 214.601562 128.269531 175.261719 116.035156 149.765625 148.742188 L 149.765625 85.050781 C 180.480469 45.648438 284.964844 57.515625 284.964844 57.515625 " fill-opacity="1" fill-rule="nonzero"/></g><path fill="#38b6ff" d="M 256.929688 0.00390625 L 253.230469 15.605469 C 218.894531 18.976562 170.027344 28.511719 153.011719 55.398438 C 153.011719 55.398438 164.464844 9.769531 256.929688 0.00390625 " fill-opacity="1" fill-rule="nonzero"/><path fill="#230b41" d="M 42.597656 0.00390625 L 46.300781 15.605469 C 80.636719 18.976562 129.503906 28.511719 146.515625 55.398438 C 146.515625 55.398438 135.0625 9.769531 42.597656 0.00390625 " fill-opacity="1" fill-rule="nonzero"/><g fill="#38b6ff" fill-opacity="1"><g transform="translate(114.272123, 121.418665)"><g><path d="M 27.359375 -33.875 L 27.359375 -27.265625 L 18.390625 -27.265625 L 18.390625 0 L 10.140625 0 L 10.140625 -27.265625 L 1.15625 -27.265625 L 1.15625 -33.875 Z M 27.359375 -33.875 "/></g></g></g><g fill="#230b41" fill-opacity="1"><g transform="translate(135.144707, 121.418665)"><g><path d="M 32.34375 -33.875 L 32.34375 0 L 24.078125 0 L 24.078125 -13.953125 L 11.25 -13.953125 L 11.25 0 L 3 0 L 3 -33.875 L 11.25 -33.875 L 11.25 -20.609375 L 24.078125 -20.609375 L 24.078125 -33.875 Z M 32.34375 -33.875 "/></g></g></g><g fill="#230b41" fill-opacity="1"><g transform="translate(170.424254, 121.418665)"><g><path d="M 11.25 -27.265625 L 11.25 -20.421875 L 22.296875 -20.421875 L 22.296875 -14.046875 L 11.25 -14.046875 L 11.25 -6.609375 L 23.75 -6.609375 L 23.75 0 L 3 0 L 3 -33.875 L 23.75 -33.875 L 23.75 -27.265625 Z M 11.25 -27.265625 "/></g></g></g></svg>